<svg id="lilypad" 
	 version="1.1"
     viewBox="0 0 100 100"
     xmlns="http://www.w3.org/2000/svg">
    <defs>
		<mask id="cutout">
		  	<rect x="0" y="0" width="100" height="100" fill="white"/>
		  	<path 
		  		d="M 45 0
		  			 L 50 34
		  			 L 55 0
		  			 Z" 
		  		fill="black"
		  	/>
		</mask>

		<radialGradient id="lilypad_gradient">
		    <stop offset="10%" stop-color="rgb(10, 175, 55)" />
		    <stop offset="95%" stop-color="rgb(27, 207, 30)" />
	    </radialGradient>
	</defs>

	<g mask="url(#cutout)">
	  <circle 
	  	cx="50" 
	  	cy="50" 
	  	r="40" 
	  	fill="url(#lilypad_gradient)" 
	  	stroke="rgb(9, 141, 35)"
	  />

	  <path d="M 50 85
	  		   l 0 -20
	  		   M 75 75
	  		   l -15 -15
	  		   M 25 75
	  		   l 15 -15
	  		   M 15 50
	  		   l 20 0
	  		   M 85 50
	  		   l -20 0
	  		   M 25 25
	  		   l 15 15
	  		   M 75 25
	  		   l -15 15
	  		   M 20 36
	  		   l 20 10
	  		   M 60 80
	  		   l -8 -20
	  		   M 38 78
	  		   l 10 -20
	  		   M 80 35
	  		   l -20 10
	  		   M 15 65
	  		   l 20 -10
	  		   M 87 60
	  		   l -25 -6
	  		   M 35 15
	  		   l 10 20
	  		   M 65 18
	  		   l -10 20
	  		   M 50 15
	  		   l 0 25
		   "
		   stroke-width="0.25px"
		   stroke="rgb(10, 185, 55)"
	  	/>
  </g>

</svg>